<?xml version="1.0" encoding="UTF-8"?>
<svg width="24px" height="24px" viewBox="0 0 24 24" version="1.1" xmlns="http://www.w3.org/2000/svg" xmlns:xlink="http://www.w3.org/1999/xlink">
    <path d="M8.99998214,1.62165445 C11.4030974,1.62165445 11.6877229,1.63080019 12.6367366,1.67409957 C13.5142277,1.71414792 13.9907709,1.8607656 14.3079424,1.98398304 C14.7280035,2.14724884 15.0278481,2.34231037 15.3427688,2.65723115 C15.6576896,2.97215193 15.8527512,3.27199653 16.0159812,3.69205761 C16.1392344,4.0092291 16.2858521,4.48577229 16.3259004,5.36322769 C16.3691998,6.31227709 16.3783455,6.5969026 16.3783455,9.00001786 C16.3783455,11.4031331 16.3691998,11.6877587 16.3259004,12.6367723 C16.2858521,13.5142635 16.1392344,13.9908066 16.0159812,14.3079781 C15.8527512,14.7280392 15.6576896,15.0278838 15.3427688,15.3428046 C15.0278481,15.6577253 14.7280035,15.8527869 14.3079424,16.0160169 C13.9907709,16.1392701 13.5142277,16.2858878 12.6367366,16.3259362 C11.6878658,16.3692355 11.4032403,16.3783813 8.99998214,16.3783813 C6.59672397,16.3783813 6.31209846,16.3692355 5.36322769,16.3259362 C4.48573657,16.2858878 4.00919337,16.1392701 3.69205761,16.0160169 C3.2719608,15.8527869 2.9721162,15.6577253 2.65719542,15.3428046 C2.34227464,15.0278838 2.14721311,14.7280392 1.98398304,14.3079781 C1.86072988,13.9908066 1.71411219,13.5142635 1.67406384,12.636808 C1.63076446,11.6877587 1.62161873,11.4031331 1.62161873,9.00001786 C1.62161873,6.5969026 1.63076446,6.31227709 1.67406384,5.36326341 C1.71411219,4.48577229 1.86072988,4.0092291 1.98398304,3.69205761 C2.14721311,3.27199653 2.34227464,2.97215193 2.65719542,2.65723115 C2.9721162,2.34231037 3.2719608,2.14724884 3.69205761,1.98398304 C4.00919337,1.8607656 4.48573657,1.71414792 5.36319196,1.67409957 C6.31224136,1.63080019 6.59686687,1.62165445 8.99998214,1.62165445 Z M8.99998214,0 C6.55571103,0 6.24925721,0.0103604113 5.28931151,0.0541599433 C4.33133072,0.097888024 3.67712433,0.250007443 3.10462229,0.472506207 C2.51279273,0.702507338 2.01088439,1.01024728 1.51054797,1.5105837 C1.01021155,2.01092011 0.702471613,2.51282845 0.472470482,3.10465801 C0.249971717,3.67716006 0.0978522989,4.33136644 0.0541242178,5.28934724 C0.0103246857,6.24925721 0,6.55574676 0,9.00001786 C0,11.444289 0.0103246857,11.7507785 0.0541242178,12.7106885 C0.0978522989,13.6686693 0.249971717,14.3228757 0.472470482,14.8953777 C0.702471613,15.4871715 1.01021155,15.9891156 1.51054797,16.489452 C2.01088439,16.9897885 2.51279273,17.2975284 3.10462229,17.5275295 C3.67712433,17.7500283 4.33133072,17.9021477 5.28931151,17.9458758 C6.24925721,17.9896753 6.55571103,18 8.99998214,18 C11.4442533,18 11.7507428,17.9896753 12.7106528,17.9458758 C13.6686336,17.9021477 14.32284,17.7500283 14.895342,17.5275295 C15.4871715,17.2975284 15.9890799,16.9897885 16.4894163,16.489452 C16.9897527,15.9891156 17.2974927,15.4872072 17.5274938,14.8953777 C17.7499926,14.3228757 17.902112,13.6686693 17.94584,12.7106885 C17.9896396,11.7507785 18,11.444289 18,9.00001786 C18,6.55574676 17.9896396,6.24925721 17.94584,5.28934724 C17.902112,4.33136644 17.7499926,3.67716006 17.5274938,3.10465801 C17.2974927,2.51282845 16.9897527,2.01092011 16.4894163,1.5105837 C15.9890799,1.01024728 15.4871715,0.702507338 14.895342,0.472506207 C14.32284,0.250007443 13.6686336,0.097888024 12.7106528,0.0541599433 C11.7507428,0.0103604113 11.4442533,0 8.99998214,0 Z M8.99998214,4.37838128 C6.44753405,4.37838128 4.37834555,6.44756977 4.37834555,9.00001786 C4.37834555,11.552466 6.44753405,13.6216545 8.99998214,13.6216545 C11.5524302,13.6216545 13.6216188,11.552466 13.6216188,9.00001786 C13.6216188,6.44756977 11.5524302,4.37838128 8.99998214,4.37838128 Z M8.99998214,12.0000357 C7.34313804,12.0000357 5.99996427,10.656862 5.99996427,9.00001786 C5.99996427,7.34317376 7.34313804,6 8.99998214,6 C10.6568262,6 12,7.34317376 12,9.00001786 C12,10.656862 10.6568262,12.0000357 8.99998214,12.0000357 Z M14.8841956,4.19578796 C14.8841956,4.79226184 14.4006859,5.27580725 13.804212,5.27580725 C13.2077381,5.27580725 12.7241928,4.79226184 12.7241928,4.19578796 C12.7241928,3.59931407 13.2077381,3.11580439 13.804212,3.11580439 C14.4006859,3.11580439 14.8841956,3.59931407 14.8841956,4.19578796 Z" id="path-1"></path>
</svg>