<?xml version="1.0" encoding="UTF-8"?>
<svg width="24px" height="24px" viewBox="0 0 24 24" version="1.1" xmlns="http://www.w3.org/2000/svg" xmlns:xlink="http://www.w3.org/1999/xlink">
    <path d="M12,24 C5.372583,24 0,18.627417 0,12 C0,5.372583 5.372583,0 12,0 C18.627417,0 24,5.372583 24,12 C24,18.627417 18.627417,24 12,24 Z M11.9999864,5.15679722 C10.1414705,5.15679722 9.90845658,5.16467482 9.17855624,5.19797805 C8.45014993,5.23122695 7.95272027,5.34689184 7.51741498,5.51607008 C7.06741391,5.69095279 6.68578495,5.92494466 6.30535122,6.30537839 C5.92491749,6.68581212 5.69092563,7.06744106 5.51604292,7.51744215 C5.34686468,7.95274743 5.23119979,8.45017709 5.19795088,9.17858341 C5.16464765,9.90845658 5.15679722,10.1414977 5.15679722,12.0000136 C5.15679722,13.8585295 5.16464765,14.0915706 5.19795088,14.8214437 C5.23119979,15.5498501 5.34686468,16.0472798 5.51604292,16.482585 C5.69092563,16.9325589 5.92491749,17.314215 6.30535122,17.6946488 C6.68578495,18.0750825 7.06741391,18.3090744 7.51741498,18.4839571 C7.95272027,18.6531353 8.45014993,18.7688002 9.17855624,18.8020491 C9.90845658,18.8353523 10.1414705,18.8432028 11.9999864,18.8432028 C13.8585023,18.8432028 14.0915434,18.8353523 14.8214166,18.8020491 C15.5498229,18.7688002 16.0472526,18.6531353 16.4825579,18.4839571 C16.9325589,18.3090744 17.3141879,18.0750825 17.6946216,17.6946488 C18.0750554,17.314215 18.3090472,16.9325861 18.4839299,16.482585 C18.6531082,16.0472798 18.7687731,15.5498501 18.8020219,14.8214437 C18.8353252,14.0915706 18.8432028,13.8585295 18.8432028,12.0000136 C18.8432028,10.1414977 18.8353252,9.90845658 18.8020219,9.17858341 C18.7687731,8.45017709 18.6531082,7.95274743 18.4839299,7.51744215 C18.3090472,7.06744106 18.0750554,6.68581212 17.6946216,6.30537839 C17.3141879,5.92494466 16.9325589,5.69095279 16.4825579,5.51607008 C16.0472526,5.34689184 15.5498229,5.23122695 14.8214166,5.19797805 C14.0915434,5.16467482 13.8585023,5.15679722 11.9999864,5.15679722 Z M11.9999864,6.38983169 C13.8272092,6.38983169 14.0436259,6.3967857 14.765214,6.42970864 C15.4324195,6.46015964 15.7947619,6.57164125 16.0359251,6.66533036 C16.355321,6.78947046 16.5833096,6.93778664 16.8227615,7.1772385 C17.0622133,7.41669037 17.2105295,7.64467896 17.3346425,7.96407487 C17.4283587,8.20523808 17.5398403,8.56758049 17.5702914,9.23475884 C17.6032143,9.95637412 17.6101683,10.1727908 17.6101683,12.0000136 C17.6101683,13.8272363 17.6032143,14.0436531 17.5702914,14.7652412 C17.5398403,15.4324467 17.4283587,15.7947891 17.3346425,16.0359523 C17.2105295,16.3553482 17.0622133,16.5833368 16.8227615,16.8227886 C16.5833096,17.0622405 16.355321,17.2105567 16.0359251,17.3346696 C15.7947619,17.4283859 15.4324195,17.5398676 14.765214,17.5703185 C14.0437345,17.6032414 13.8273179,17.6101955 11.9999864,17.6101955 C10.172655,17.6101955 9.9562383,17.6032414 9.23475884,17.5703185 C8.56755333,17.5398676 8.20521091,17.4283859 7.96407487,17.3346696 C7.6446518,17.2105567 7.4166632,17.0622405 7.17721134,16.8227886 C6.93775948,16.5833368 6.7894433,16.3553482 6.66533036,16.0359523 C6.57161409,15.7947891 6.46013247,15.4324467 6.42968148,14.7652683 C6.39675854,14.0436531 6.38980453,13.8272363 6.38980453,12.0000136 C6.38980453,10.1727908 6.39675854,9.95637412 6.42968148,9.23478601 C6.46013247,8.56758049 6.57161409,8.20523808 6.66533036,7.96407487 C6.7894433,7.64467896 6.93775948,7.41669037 7.17721134,7.1772385 C7.4166632,6.93778664 7.6446518,6.78947046 7.96407487,6.66533036 C8.20521091,6.57164125 8.56755333,6.46015964 9.23473168,6.42970864 C9.95634696,6.3967857 10.1727636,6.38983169 11.9999864,6.38983169 Z M11.9999864,8.4859251 C10.0592175,8.4859251 8.48589793,10.0592447 8.48589793,12.0000136 C8.48589793,13.9407825 10.0592175,15.5141021 11.9999864,15.5141021 C13.9407553,15.5141021 15.5140749,13.9407825 15.5140749,12.0000136 C15.5140749,10.0592447 13.9407553,8.4859251 11.9999864,8.4859251 Z M11.9999864,14.2810948 C10.7401953,14.2810948 9.71890524,13.2598047 9.71890524,12.0000136 C9.71890524,10.7402224 10.7401953,9.7189324 11.9999864,9.7189324 C13.2597776,9.7189324 14.2810676,10.7402224 14.2810676,12.0000136 C14.2810676,13.2598047 13.2597776,14.2810948 11.9999864,14.2810948 Z M16.4740827,8.3470892 C16.4740827,7.89355678 16.1064432,7.52591736 15.6529108,7.52591736 C15.1993784,7.52591736 14.8317118,7.89355678 14.8317118,8.3470892 C14.8317118,8.80062162 15.1993784,9.1682882 15.6529108,9.1682882 C16.1064432,9.1682882 16.4740827,8.80062162 16.4740827,8.3470892 Z" id="path-1"></path>
</svg>