<?xml version="1.0" encoding="UTF-8"?>
<svg width="24px" height="24px" viewBox="0 0 24 24" version="1.1" xmlns="http://www.w3.org/2000/svg" xmlns:xlink="http://www.w3.org/1999/xlink">
    <path d="M9.75000048,7.68602251 L9.78117414,7.59624964 C10.2335561,6.86949489 10.8015189,6.35810347 11.4850624,6.06207539 C12.5103776,5.61803327 15.5337074,5.11435387 16.7874209,7.59624964 C17.6187517,9.13038567 17.4006825,11.8338091 17.4006825,17.3834761 C15.6348534,17.3834761 14.4633724,17.3834761 13.8862396,17.3834761 C13.8862396,13.5944803 13.8862396,11.4538832 13.8862396,10.9616849 C13.8862396,10.2233874 13.6748779,8.83229347 11.853917,8.83229347 C10.032956,8.83229347 9.93838981,10.3216897 9.93838981,10.9616849 C9.93838981,11.3883484 9.93838981,13.5289454 9.93838981,17.3834761 L9.75000048,17.3834761 L9.75000048,17.3999996 L6.35000038,17.3999996 L6.35000038,6 L9.75000048,6 L9.75000048,7.68602251 Z M2.39999986,4.49999976 C1.24020194,4.49999976 0.299999952,3.55979778 0.299999952,2.39999986 C0.299999952,1.24020194 1.24020194,0.299999952 2.39999986,0.299999952 C3.55979778,0.299999952 4.49999976,1.24020194 4.49999976,2.39999986 C4.49999976,3.55979778 3.55979778,4.49999976 2.39999986,4.49999976 Z M0.599999905,6 L4.14999986,6 L4.14999986,17.3999996 L0.599999905,17.3999996 L0.599999905,6 Z" id="path-1"></path>
</svg>