<?xml version="1.0" encoding="UTF-8"?>
<svg width="24px" height="24px" viewBox="0 0 24 24" version="1.1" xmlns="http://www.w3.org/2000/svg" xmlns:xlink="http://www.w3.org/1999/xlink">
    <path d="M12.4991222,10.0153341 L12.4991222,8.80631974 L10.0610475,8.80631974 L10.0610475,16.9810403 L12.4991222,16.9810403 L12.4991222,16.9691915 L12.6342125,16.9691915 C12.6342125,14.2051818 12.6342125,12.6702008 12.6342125,12.3642486 C12.6342125,11.9053203 12.7020242,10.8373029 14.0078002,10.8373029 C15.3135763,10.8373029 15.4651397,11.8348297 15.4651397,12.3642486 C15.4651397,12.7171945 15.4651397,14.2521755 15.4651397,16.9691915 C15.8789905,16.9691915 16.719037,16.9691915 17.9852792,16.9691915 C17.9852792,12.9896321 18.1416524,11.0510591 17.545521,9.95095966 C16.6465072,8.17123993 14.4785355,8.53241874 13.7433017,8.85083281 C13.2531458,9.06310885 12.8458706,9.4298178 12.5214762,9.95095966 L12.4991222,10.0153341 Z M12,24 C5.372583,24 0,18.627417 0,12 C0,5.372583 5.372583,0 12,0 C18.627417,0 24,5.372583 24,12 C24,18.627417 18.627417,24 12,24 Z M7.22857804,7.73069841 C8.06024683,7.73069841 8.7344476,7.05649764 8.7344476,6.22482885 C8.7344476,5.39316006 8.06024683,4.7189593 7.22857804,4.7189593 C6.39690925,4.7189593 5.72270849,5.39316006 5.72270849,6.22482885 C5.72270849,7.05649764 6.39690925,7.73069841 7.22857804,7.73069841 Z M5.93783269,8.80631974 L5.93783269,16.9810403 L8.4834694,16.9810403 L8.4834694,8.80631974 L5.93783269,8.80631974 Z" id="path-1"></path>
</svg>