<?xml version="1.0" encoding="UTF-8"?>
<svg width="24px" height="24px" viewBox="0 0 24 24" version="1.1" xmlns="http://www.w3.org/2000/svg" xmlns:xlink="http://www.w3.org/1999/xlink">
    <path d="M1.35227077,0.682188786 L6.69410822,3.57170385 L6.59540809,15.9933041 C6.59321397,16.2694378 6.36758473,16.4915096 6.09145107,16.4893155 C6.01257642,16.4886888 5.93496901,16.4694103 5.86496967,16.4330552 L0.883928393,13.8460817 C0.718312479,13.7600667 0.614382589,13.5889783 0.614382589,13.4023578 L0.614382589,1.12197193 C0.614382589,0.845829553 0.838240214,0.621971928 1.11438259,0.621971928 C1.19744959,0.621971928 1.27920784,0.64266747 1.35227077,0.682188786 Z M7.61912527,5.39469811 L11.6676617,13.1525724 L7.61912527,11.0798987 L7.61912527,5.39469811 Z M9.22423271,6.55127962 L12.5727919,1.05430015 C12.8168125,0.680096605 13.0960584,0.570158115 13.4105298,0.724484682 C13.7250012,0.878811248 15.6078147,1.83162066 19.0589703,3.58291291 L12.9139394,13.6439013 L9.22423271,6.55127962 Z M19.0124431,5.37102201 C19.0124431,12.2414318 19.0124431,15.8244421 19.0124431,16.1200529 C19.0124431,16.5634693 18.5257345,16.5787522 18.2675947,16.4640576 C17.7732821,16.2257944 16.2464075,15.447398 13.6869709,14.1288684 L19.0124431,5.37102201 Z" id="path-1"></path>
</svg>