<?xml version="1.0" encoding="UTF-8"?>
<svg width="24px" height="24px" viewBox="0 0 24 24" version="1.1" xmlns="http://www.w3.org/2000/svg" xmlns:xlink="http://www.w3.org/1999/xlink">
    <path d="M12.8,24.6 C6.172583,24.6 0.8,19.227417 0.8,12.6 C0.8,5.972583 6.172583,0.6 12.8,0.6 C19.427417,0.6 24.8,5.972583 24.8,12.6 C24.8,19.227417 19.427417,24.6 12.8,24.6 Z M6.63510196,6.7342879 C6.56203903,6.69476659 6.48028078,6.67407104 6.39721378,6.67407104 C6.1210714,6.67407104 5.89721378,6.89792867 5.89721378,7.17407104 L5.89721378,16.1317982 C5.89721378,16.3184187 6.00114367,16.4895072 6.16675958,16.5755221 L9.66889823,18.3944068 C9.73889756,18.430762 9.81650498,18.4500405 9.89537963,18.4506672 C10.1715133,18.4528613 10.3971425,18.2307894 10.3993366,17.9546558 L10.4720007,8.80974915 L6.63510196,6.7342879 Z M11.1680446,10.1814904 L11.1680446,14.4594106 L14.2144306,16.0190271 L11.1680446,10.1814904 Z M12.3758334,11.0517786 L15.1522122,16.3887354 L19.7761391,8.81818358 C17.1792618,7.50039569 15.7625086,6.783439 15.5258796,6.6673135 C15.2892506,6.55118801 15.0791275,6.63391298 14.8955103,6.91548843 L12.3758334,11.0517786 Z M19.7411289,10.1636749 L15.7338922,16.7536566 C17.6597812,17.7458054 18.8087024,18.3315222 19.1806558,18.5108071 C19.3748973,18.597111 19.7411289,18.5856111 19.7411289,18.2519553 C19.7411289,18.0295182 19.7411289,15.3334247 19.7411289,10.1636749 Z" id="path-1"></path>
</svg>