<?xml version="1.0" encoding="UTF-8"?>
<svg width="24px" height="24px" viewBox="0 0 24 24" version="1.1" xmlns="http://www.w3.org/2000/svg" xmlns:xlink="http://www.w3.org/1999/xlink">
    <path d="M12,24 C5.372583,24 0,18.627417 0,12 C0,5.372583 5.372583,0 12,0 C18.627417,0 24,5.372583 24,12 C24,18.627417 18.627417,24 12,24 Z M19.3724487,12.1006701 C19.3394273,11.2090934 18.5909432,10.5128931 17.6966147,10.5431627 C17.3003584,10.5569216 16.9233646,10.7192766 16.6371795,10.9917028 C15.3768643,10.1331475 13.8964067,9.66259311 12.3746724,9.62957175 L13.0928869,6.17608796 L15.4621694,6.67416012 C15.5282122,7.28230348 16.0730646,7.72258827 16.681208,7.65654555 C17.2893513,7.59050283 17.7296361,7.04565041 17.6635934,6.43750705 C17.5975507,5.82936369 17.0526982,5.3890789 16.4445549,5.45512162 C16.0950788,5.49089476 15.7813759,5.69452647 15.6080138,5.99722226 L12.8947588,5.45512162 C12.7103895,5.41384492 12.5260203,5.52941968 12.4847436,5.71654071 C12.4847436,5.71929249 12.4847436,5.71929249 12.4847436,5.72204427 L11.6674649,9.56352903 C10.1264682,9.58829505 8.62674814,10.0616012 7.34992226,10.9256601 C6.7005022,10.3147649 5.67684007,10.3450345 5.06594493,10.9972064 C4.45504979,11.6466264 4.48531937,12.6702886 5.13749121,13.2811837 C5.26407309,13.3995102 5.40991742,13.5013261 5.57227244,13.5728724 C5.56126532,13.7352274 5.56126532,13.8975824 5.57227244,14.0599374 C5.57227244,16.5392911 8.46164135,18.5563458 12.0251963,18.5563458 C15.5887513,18.5563458 18.4781202,16.5420429 18.4781202,14.0599374 C18.4891274,13.8975824 18.4891274,13.7352274 18.4781202,13.5728724 C19.0339798,13.2949426 19.3834558,12.7225724 19.3724487,12.1006701 Z M8.31364933,13.1092489 C8.31364933,12.4983538 8.81218584,12.0002816 9.4236505,12.0002816 C10.0351152,12.0002816 10.5336517,12.4983538 10.5336517,13.1092489 C10.5336517,13.7201441 10.0351152,14.2182162 9.4236505,14.2182162 C8.80943149,14.2127127 8.31364933,13.7201441 8.31364933,13.1092489 Z M14.7329478,16.253106 C13.9459387,16.8447387 12.9828157,17.1474345 11.9976785,17.1061578 C11.0125413,17.1474345 10.0494184,16.8447387 9.2624093,16.253106 C9.15784167,16.1265241 9.17710412,15.9366513 9.303686,15.8320837 C9.4137572,15.7412749 9.57060865,15.7412749 9.68343163,15.8320837 C10.3493624,16.3191487 11.1611374,16.5668089 11.9866714,16.528284 C12.8122054,16.5723125 13.6267322,16.3356594 14.3009183,15.8540979 C14.4219966,15.7357714 14.6201248,15.7385232 14.7384513,15.8596015 C14.8567779,15.9806798 14.8540261,16.1788079 14.7329478,16.2971345 L14.7329478,16.253106 Z M13.6383781,13.1092489 C13.6383781,12.4983538 14.1364502,12.0002816 14.7473454,12.0002816 C15.3582405,12.0002816 15.8563127,12.4983538 15.8563127,13.1092489 C15.8563127,13.7201441 15.3582405,14.2182162 14.7473454,14.2182162 C14.1336985,14.2127127 13.6383781,13.7201441 13.6383781,13.1092489 Z" id="path-1"></path>
</svg>