<?xml version="1.0" encoding="UTF-8"?>
<svg width="24px" height="24px" viewBox="0 0 24 24" version="1.1" xmlns="http://www.w3.org/2000/svg" xmlns:xlink="http://www.w3.org/1999/xlink">
    <path d="M17.9996916,8.12254618 C18.0131282,8.88171438 17.586516,9.58041784 16.9079674,9.91969213 C16.9214041,10.1178821 16.9214041,10.316072 16.9079674,10.5142619 C16.9079674,13.5442164 13.3808586,16.0031151 9.03075766,16.0031151 C4.68065673,16.0031151 1.15354787,13.5408572 1.15354787,10.5142619 C1.14011126,10.316072 1.14011126,10.1178821 1.15354787,9.91969213 C0.955357942,9.83235419 0.777322923,9.70806559 0.622801964,9.56362209 C-0.173316893,8.8178905 -0.210267558,7.56828622 0.53546403,6.77552651 C1.28119562,5.97940766 2.5307999,5.94245699 3.32355961,6.68818858 C4.88220581,5.63341507 6.71294326,5.05564105 8.59406799,5.02540869 L9.59173592,0.336033478 C9.59173592,0.332674326 9.59173592,0.332674326 9.59173592,0.329315175 C9.64212319,0.100892887 9.86718633,-0.0401914675 10.0922495,0.0101958019 L13.4043726,0.671948607 C13.6159992,0.302441965 13.9989424,0.0538647688 14.4255546,0.0101958019 C15.1679271,-0.0704238292 15.833039,0.467040378 15.9136587,1.20941281 C15.9942783,1.95178525 15.4568141,2.61689721 14.7144417,2.69751684 C13.9720692,2.77813647 13.3069573,2.24067226 13.2263376,1.49829983 L10.3341084,0.890293442 L9.45736987,5.10602832 C11.3149805,5.14633813 13.1222039,5.72075301 14.6606952,6.76880821 C15.010047,6.43625223 15.4702507,6.2380623 15.9539685,6.22126655 C17.0456927,6.18431588 17.9593818,7.03418116 17.9996916,8.12254618 Z M4.5,9.35373797 C4.5,10.0994696 5.10521093,10.7007576 5.85500002,10.7074759 C6.60142683,10.7074759 7.21000004,10.0994696 7.21000004,9.35373797 C7.21000004,8.60800638 6.60142683,8 5.85500002,8 C5.10857321,8 4.5,8.60800638 4.5,9.35373797 Z M12.3361625,13.1915055 L12.3361625,13.2452519 C12.4839652,13.1008084 12.4873243,12.8589495 12.3428808,12.7111469 C12.1984373,12.5633442 11.9565784,12.559985 11.8087758,12.7044286 C10.9857837,13.29228 9.99147493,13.581167 8.98372954,13.5274206 C7.97598415,13.5744487 6.98503452,13.2721251 6.17211991,12.6775553 C6.0343947,12.5667033 5.84292308,12.5667033 5.70855703,12.6775553 C5.55403607,12.8052031 5.53052201,13.0369845 5.65816976,13.1915055 C6.61888703,13.913723 7.79458998,14.2832297 8.99716615,14.2328424 C10.1997423,14.2832297 11.3754453,13.913723 12.3361625,13.1915055 Z M11,9.35373797 C11,10.0994696 11.6046472,10.7007576 12.353738,10.7074759 C13.0994696,10.7074759 13.7074759,10.0994696 13.7074759,9.35373797 C13.7074759,8.60800638 13.0994696,8 12.353738,8 C11.6080064,8 11,8.60800638 11,9.35373797 Z" id="path-1"></path>
</svg>