<?xml version="1.0" encoding="UTF-8"?>
<svg width="24px" height="24px" viewBox="0 0 24 24" version="1.1" xmlns="http://www.w3.org/2000/svg" xmlns:xlink="http://www.w3.org/1999/xlink">
    <path d="M17.8039148,12.2057411 L15.9803093,12.8154999 L16.6125977,14.6987772 C16.8684435,15.4615383 16.4559345,16.2873003 15.6917784,16.542679 C15.5260986,16.5978048 15.3570375,16.6225551 15.1913576,16.6180551 C14.5951356,16.6023048 14.0451236,16.2209243 13.8456315,15.6235407 L13.2133431,13.7402633 L9.45229773,14.9980316 L10.0845861,16.8813089 C10.3404319,17.64407 9.92904995,18.4687069 9.1648939,18.7252106 C8.99808697,18.7803364 8.8290259,18.8039618 8.66334605,18.7994617 C8.06825107,18.7848365 7.51823904,18.403456 7.3176199,17.8060723 L6.68533149,15.922795 L4.86172604,16.5325538 C4.69491911,16.5876796 4.52585804,16.611305 4.36130526,16.6079299 C3.76508321,16.5921797 3.21507118,16.2107992 3.01445204,15.6134155 C2.75860628,14.8506544 3.1711153,14.0260175 3.93527135,13.7706388 L5.7588768,13.1608799 L4.54614537,9.54732754 L2.72253992,10.1570864 C2.55686007,10.2122122 2.38779899,10.2369625 2.22211914,10.2324625 C1.62589709,10.2167123 1.07588506,9.83533172 0.876392995,9.23794806 C0.619420163,8.475187 1.03192918,7.65055004 1.79608524,7.39517134 L3.61969068,6.78541249 L2.98740227,4.90213518 C2.73155651,4.13937412 3.14406553,3.31361215 3.90822158,3.05823345 C4.67237764,2.80285474 5.49852275,3.21461071 5.75436851,3.97624676 L6.38665692,5.86064908 L10.1477023,4.60288085 L9.51541386,2.71960354 C9.2595681,1.95684248 9.67095005,1.1310805 10.4351061,0.875701798 C11.1992622,0.620323095 12.0265343,1.03207907 12.2823801,1.79484013 L12.9146685,3.67811744 L14.738274,3.06835859 C15.50243,2.81297989 16.3285751,3.22473586 16.585548,3.98637191 C16.8413937,4.74913297 16.4288847,5.57489494 15.6647286,5.83027364 L13.8411232,6.44003249 L15.0538546,10.0535849 L16.8774601,9.44382604 C17.6416161,9.18844734 18.4677612,9.59907829 18.723607,10.3618394 C18.9805798,11.1246004 18.5680708,11.9503624 17.8039148,12.2057411 Z M7.31333702,8.62222663 L8.52606846,12.235779 L12.2871138,10.9780108 L11.0743824,7.36445839 L7.31333702,8.62222663 Z" id="path-1"></path>
</svg>