<?xml version="1.0" encoding="UTF-8"?>
<svg width="24px" height="24px" viewBox="0 0 24 24" version="1.1" xmlns="http://www.w3.org/2000/svg" xmlns:xlink="http://www.w3.org/1999/xlink">
    <path d="M12.8,24.8 C6.172583,24.8 0.8,19.427417 0.8,12.8 C0.8,6.172583 6.172583,0.8 12.8,0.8 C19.427417,0.8 24.8,6.172583 24.8,12.8 C24.8,19.427417 19.427417,24.8 12.8,24.8 Z M19.2298304,14.7326177 C19.8437042,14.5274628 20.1750874,13.8640988 19.968652,13.2513456 C19.7631219,12.6385924 19.0994501,12.3087179 18.4855762,12.5138728 L17.0206089,13.0037138 L16.0463785,10.1008182 L17.5113458,9.61097715 C18.1252196,9.40582233 18.4566029,8.74245827 18.2510728,8.12970509 C18.0446374,7.51785567 17.3809655,7.18707741 16.7670917,7.39223223 L15.3021244,7.88207327 L14.7941845,6.3691694 C14.5886545,5.75641622 13.9240772,5.42563796 13.3102034,5.63079278 C12.6963296,5.83594761 12.3658518,6.49931167 12.5713818,7.11206485 L13.0793216,8.62496872 L10.0579397,9.63537883 L9.54999985,8.1215712 C9.34446982,7.50972178 8.68079797,7.17894352 8.06692414,7.38409834 C7.45305032,7.58925317 7.1216671,8.25261723 7.32719713,8.86537041 L7.83513698,10.3782743 L6.37016964,10.8681153 C5.75629582,11.0732701 5.4249126,11.7357304 5.63134805,12.3484836 C5.79160714,12.8283832 6.23345143,13.1347598 6.71241788,13.1474125 C6.84551442,13.1510276 6.98132721,13.1311448 7.11442375,13.0868602 L8.57939109,12.5970192 L9.55362152,15.4999148 L8.08865419,15.9897558 C7.47478036,16.1949107 7.14339715,16.857371 7.34892718,17.4701241 C7.51009169,17.9500237 7.95193598,18.2564003 8.43090243,18.2690531 C8.56309355,18.2717644 8.69890634,18.2527853 8.8329083,18.2085008 L10.2978756,17.7186597 L10.8058155,19.2315636 C10.96698,19.7114632 11.4088243,20.0178398 11.8868853,20.0295887 C12.0199819,20.0332038 12.1557946,20.0142247 12.2897966,19.9699402 C12.9036704,19.7638816 13.2341482,19.1014213 13.0286182,18.4886681 L12.5206784,16.9757643 L15.5420603,15.9653542 L16.0500002,17.478258 C16.2102592,17.9581576 16.6521035,18.2645342 17.13107,18.277187 C17.2641665,18.280802 17.3999793,18.2609192 17.5330759,18.2166346 C18.1469497,18.0114798 18.4783329,17.3481158 18.2728029,16.7353626 L17.764863,15.2224587 L19.2298304,14.7326177 Z M10.8023749,11.8538526 L13.8237568,10.8434425 L14.7979873,13.7463381 L11.7766053,14.7567482 L10.8023749,11.8538526 Z" id="path-1"></path>
</svg>