<?xml version="1.0" encoding="UTF-8"?>
<svg width="24px" height="24px" viewBox="0 0 24 24" version="1.1" xmlns="http://www.w3.org/2000/svg" xmlns:xlink="http://www.w3.org/1999/xlink">
    <path d="M5.25313975,8.73458036 L6.15421548,13.0369887 C6.26705028,13.5757462 6.43796774,13.5736988 6.53667413,13.0357761 L7.05195618,10.2276306 L7.10647017,10.2658807 L7.05159716,10.2242778 L14.7271417,3.11623529 C15.0640018,2.80943652 14.653579,2.65982861 14.2063955,2.93810603 L5.25313975,8.73458036 Z M4.72677038,9.06862486 L0.642054124,7.76032153 C-0.241567481,7.48268109 -0.247912662,6.85958257 0.840437582,6.4116124 L16.7847735,0.102490381 C17.5129933,-0.236781873 18.2158601,0.28197854 17.9378584,1.42574843 L15.2225348,14.5565529 C15.0329242,15.4896507 14.4835281,15.7128077 13.7223133,15.2817955 L9.00725189,11.7069909 C8.67037811,12.0258537 7.12762858,13.4822367 6.76961178,13.7508893 C6.36707479,14.0529495 5.88693117,13.8359049 5.78433605,13.4241504 C5.68481758,13.0247437 4.78088583,9.29209665 4.72676066,9.06858472 Z" id="path-1"></path>
</svg>