<?xml version="1.0" encoding="UTF-8"?>
<svg width="24px" height="24px" viewBox="0 0 24 24" version="1.1" xmlns="http://www.w3.org/2000/svg" xmlns:xlink="http://www.w3.org/1999/xlink">
    <path d="M8.07704198,12.5172911 L15.061554,7.99541144 C15.4104058,7.77832483 15.7305802,7.89503525 15.4677927,8.13437162 L9.48003412,13.6794169 L9.52284104,13.7118717 L9.4803142,13.6820325 L9.11919263,15.6500458 C9.01962766,16.1926475 8.84618017,16.1897311 8.73355826,15.65199 L8.07704198,12.5172911 Z M7.6664091,12.7778508 C7.70863262,12.9522144 8.41379758,15.8640845 8.4914328,16.1756652 C8.57146813,16.4968784 8.94603232,16.6661968 9.2600549,16.430557 C9.53934689,16.2209788 10.7428591,15.0848418 11.0056573,14.8360942 L14.6839174,17.6248301 C15.2777476,17.9610665 15.7063363,17.7869798 15.8542531,17.0590621 L17.9725005,6.81560823 C18.189372,5.92334346 17.6410596,5.51865399 17.072969,5.7833232 L4.63465493,10.7051237 C3.78562351,11.0545891 3.79057344,11.5406737 4.47989428,11.7572634 L7.66641669,12.7778821 Z M12,24 C5.372583,24 0,18.627417 0,12 C0,5.372583 5.372583,0 12,0 C18.627417,0 24,5.372583 24,12 C24,18.627417 18.627417,24 12,24 Z" id="path-1"></path>
</svg>