<?xml version="1.0" encoding="UTF-8"?>
<svg width="24px" height="24px" viewBox="0 0 24 24" version="1.1" xmlns="http://www.w3.org/2000/svg" xmlns:xlink="http://www.w3.org/1999/xlink">
    <path d="M12.8,24.4 C6.172583,24.4 0.8,19.027417 0.8,12.4 C0.8,5.772583 6.172583,0.4 12.8,0.4 C19.427417,0.4 24.8,5.772583 24.8,12.4 C24.8,19.027417 19.427417,24.4 12.8,24.4 Z M10.2101237,18.4300001 C15.8898518,18.4300001 18.9964235,13.7243869 18.9964235,9.64370033 C18.9964235,9.51004551 18.9964235,9.37699273 18.9873928,9.244542 C19.5917482,8.80740092 20.113438,8.26614013 20.5280356,7.64610251 C19.9644451,7.8958334 19.3665807,8.05960685 18.7543999,8.13195587 C19.39904,7.7460318 19.8815096,7.13904016 20.1120199,6.4239435 C19.5058516,6.78364074 18.842688,7.03713741 18.151147,7.17349422 C17.1939393,6.15566712 15.6729453,5.90655036 14.4410511,6.56583431 C13.2091569,7.22511826 12.5727287,8.62884221 12.8886387,9.98987838 C10.4057268,9.86540451 8.09240258,8.6926579 6.52438113,6.76349901 C5.70476564,8.17448744 6.12340936,9.97955895 7.48043459,10.8857269 C6.98900698,10.8711619 6.50829401,10.7385942 6.07886504,10.4992116 C6.07886504,10.5118547 6.07886504,10.5250997 6.07886504,10.5383448 C6.07926729,12.0083029 7.11544341,13.2743766 8.55629574,13.565446 C8.10167041,13.689432 7.62467378,13.7075562 7.16195078,13.6184263 C7.56649621,14.8763608 8.72581736,15.7381099 10.0469685,15.7629241 C8.95348841,16.6223077 7.60268631,17.0888328 6.21191782,17.0874314 C5.96622387,17.0869597 5.72076888,17.0720836 5.47681627,17.0428797 C6.88900351,17.9491296 8.53216165,18.4298297 10.2101237,18.4275919 L10.2101237,18.4300001 Z" id="path-1"></path>
</svg>