<?xml version="1.0" encoding="UTF-8"?>
<svg width="24px" height="24px" viewBox="0 0 24 24" version="1.1" xmlns="http://www.w3.org/2000/svg" xmlns:xlink="http://www.w3.org/1999/xlink">
    <path d="M5.66216581,14.6300001 C12.4564767,14.6300001 16.1726781,9.00096323 16.1726781,4.1194878 C16.1726781,3.95960472 16.1726781,3.80044182 16.1618752,3.64199913 C16.8848286,3.11907403 17.5088941,2.4715969 18.0048518,1.72988386 C17.3306631,2.02862164 16.6154745,2.22453378 15.8831601,2.31108048 C16.6543036,1.84942316 17.2314524,1.12331624 17.5071977,0.267889892 C16.7820757,0.69817367 15.9887738,1.00141621 15.1615256,1.16453151 C14.0164767,-0.0530327076 12.1970047,-0.351035832 10.7233652,0.437625179 C9.24972558,1.22628619 8.4884054,2.90547518 8.86630924,4.53359939 C5.89615379,4.38469893 3.12886571,2.98181398 1.25313769,0.67407935 C0.272681865,2.36195839 0.773479709,4.52125489 2.39680588,5.60524817 C1.80894113,5.58782491 1.23389365,5.42924223 0.720194074,5.14288358 C0.720194074,5.15800765 0.720194074,5.17385192 0.720194074,5.18969619 C0.720675259,6.94811698 1.96018929,8.46264349 3.68379269,8.810832 C3.13995225,8.9591488 2.5693504,8.9808297 2.01582321,8.87420908 C2.49975613,10.378999 3.88658102,11.4098567 5.46699322,11.4395404 C4.15892995,12.4675684 2.54304813,13.0256437 0.879356964,13.0239673 C0.585448333,13.0234031 0.291825567,13.0056078 5.68434189e-14,12.970673 C1.68931311,14.0547642 3.65492256,14.6297962 5.66216581,14.6271193" id="path-1"></path>
</svg>