<?xml version="1.0" encoding="UTF-8"?>
<svg width="24px" height="24px" viewBox="0 0 24 24" version="1.1" xmlns="http://www.w3.org/2000/svg" xmlns:xlink="http://www.w3.org/1999/xlink">
  <path d="M9,6.46153846 C9.74375,6.46153846 10.3796875,6.73237179 10.9078125,7.27403846 C11.4359375,7.81570513 11.7,8.46794872 11.7,9.23076923 C11.7,9.99358974 11.4359375,10.6458333 10.9078125,11.1875 C10.3796875,11.7291667 9.74375,12 9,12 C8.25625,12 7.6203125,11.7291667 7.0921875,11.1875 C6.5640625,10.6458333 6.3,9.99358974 6.3,9.23076923 C6.3,8.46794872 6.5640625,7.81570513 7.0921875,7.27403846 C7.6203125,6.73237179 8.25625,6.46153846 9,6.46153846 M15.6,2.46153846 C16.2625,2.46153846 16.828125,2.70192308 17.296875,3.18269231 C17.765625,3.66346154 18,4.24358974 18,4.92307692 L18,13.5384615 C18,14.2179487 17.765625,14.7980769 17.296875,15.2788462 C16.828125,15.7596154 16.2625,16 15.6,16 L2.4,16 C1.7375,16 1.171875,15.7596154 0.703125,15.2788462 C0.234375,14.7980769 0,14.2179487 0,13.5384615 L0,4.92307692 C0,4.24358974 0.234375,3.66346154 0.703125,3.18269231 C1.171875,2.70192308 1.7375,2.46153846 2.4,2.46153846 L4.5,2.46153846 L4.978125,1.15384615 C5.096875,0.83974359 5.3140625,0.568910256 5.6296875,0.341346154 C5.9453125,0.113782051 6.26875,0 6.6,0 L11.4,0 C11.73125,0 12.0546875,0.113782051 12.3703125,0.341346154 C12.6859375,0.568910256 12.903125,0.83974359 13.021875,1.15384615 L13.5,2.46153846 L15.6,2.46153846 M9,13.5384615 C10.15625,13.5384615 11.1453125,13.1169872 11.9671875,12.2740385 C12.7890625,11.4310897 13.2,10.4166667 13.2,9.23076923 C13.2,8.04487179 12.7890625,7.03044872 11.9671875,6.1875 C11.1453125,5.34455128 10.15625,4.92307692 9,4.92307692 C7.84375,4.92307692 6.8546875,5.34455128 6.0328125,6.1875 C5.2109375,7.03044872 4.8,8.04487179 4.8,9.23076923 C4.8,10.4166667 5.2109375,11.4310897 6.0328125,12.2740385 C6.8546875,13.1169872 7.84375,13.5384615 9,13.5384615" id="path-1"></path>
</svg>